<svg width="56" height="56" viewBox="0 0 56 56" fill="none" xmlns="http://www.w3.org/2000/svg">
<g id="Behance" clip-path="url(#clip0_2766_116)">
<g id="black">
<g id="behance">
<path id="Vector" fill-rule="evenodd" clip-rule="evenodd" d="M28 56C43.464 56 56 43.464 56 28C56 12.536 43.464 0 28 0C12.536 0 0 12.536 0 28C0 43.464 12.536 56 28 56Z" fill="black"/>
<path id="Vector_2" fill-rule="evenodd" clip-rule="evenodd" d="M33.0616 18.5378V20.6917H41.677V18.5378H33.0616ZM11.3077 17.4167L21.2497 17.5269C21.2497 17.5269 26.7093 17.2389 27.4618 21.5736C28.2143 25.9084 24.7155 26.9325 24.7155 26.9325C24.7155 26.9325 29.0365 27.9139 28.4348 32.977C27.8331 38.0401 21.9328 38.0924 21.9328 38.0924H11.3077V17.4167ZM15.8308 25.6456L19.945 25.6712C20.2083 25.6712 20.9005 25.6483 21.47 25.5138C21.7137 25.4563 22.188 25.2926 22.5155 24.9973C22.6514 24.8747 22.9019 24.5293 23.0465 24.12C23.187 23.7221 23.2235 23.2609 23.2235 23.084C23.2235 22.76 23.1645 22.4602 23.0465 22.1844C22.9285 21.9086 22.7515 21.67 22.5155 21.4686C22.2795 21.2672 21.9793 21.1096 21.615 20.9958C21.2507 20.882 20.8172 20.8251 20.3144 20.8251L15.8308 20.7994V25.6456ZM15.8308 34.3402L20.3258 34.3686C20.6135 34.3686 21.3698 34.3432 21.9919 34.1946C22.2582 34.131 22.7764 33.9501 23.1342 33.6238C23.2827 33.4883 23.5564 33.1065 23.7144 32.6541C23.8679 32.2143 23.9078 31.7046 23.9078 31.509C23.9078 31.151 23.8433 30.8196 23.7144 30.5147C23.5854 30.2099 23.392 29.9462 23.1342 29.7236C22.8763 29.5011 22.5484 29.3269 22.1504 29.2011C21.7524 29.0753 21.2787 29.0124 20.7294 29.0124L15.8308 28.984V34.3402ZM34.0116 31.5863C34.0181 31.7067 34.0116 34.6763 36.4446 35.3584C39.2693 36.1501 40.5282 33.8039 40.6259 33.532H44.3257C44.23 33.9776 42.726 40.0443 34.5432 38.0671C29.5203 36.8534 29.7785 30.9059 29.7785 30.3966C29.7785 29.9275 29.7987 27.4324 31.8228 25.1316C33.8469 22.8307 36.7286 22.8307 37.3122 22.8307C37.8957 22.8307 40.8969 22.8307 42.726 24.8612C45.0926 27.4883 44.6232 31.6979 44.6232 31.6979L34.0116 31.5863ZM40.4924 28.984C40.4637 28.5185 40.3705 28.0896 40.2127 27.6972C40.0549 27.3047 39.8374 26.9648 39.5601 26.6773C39.2828 26.3898 38.9505 26.1639 38.5633 25.9996C38.176 25.8354 37.7433 25.7532 37.2652 25.7532C36.835 25.7532 36.4358 25.8399 36.0676 26.0133C35.6995 26.1867 35.3768 26.4217 35.0995 26.7183C34.8222 27.015 34.5999 27.3572 34.4325 27.7451C34.2652 28.1329 34.1672 28.5459 34.1385 28.984H40.4924Z" fill="white"/>
</g>
</g>
</g>
<defs>
<clipPath id="clip0_2766_116">
<rect width="56" height="56" fill="white"/>
</clipPath>
</defs>
</svg>
