<svg width="56" height="56" viewBox="0 0 56 56" fill="none" xmlns="http://www.w3.org/2000/svg">
<g id="Dribble" clip-path="url(#clip0_2766_121)">
<g id="Layer_x0020_1">
<g id="_1639462655760">
<path id="Vector" fill-rule="evenodd" clip-rule="evenodd" d="M28 0C43.4645 0 56 12.5355 56 28C56 43.4645 43.4645 56 28 56C12.5355 56 0 43.4645 0 28C0 12.5355 12.5355 0 28 0Z" fill="url(#paint0_linear_2766_121)"/>
<path id="Vector_2" fill-rule="evenodd" clip-rule="evenodd" d="M32.2568 27.0332C31.8839 26.1724 31.4956 25.3138 31.0822 24.464C34.615 22.9338 37.4543 20.8557 39.5697 18.2209C41.6336 20.6588 42.9286 23.7552 43.12 27.1459C39.1814 26.5006 35.5589 26.4645 32.2568 27.0332ZM36.4164 40.6034C35.7459 37.0049 34.7637 33.4874 33.4797 30.0552C36.3486 29.6495 39.5062 29.7545 42.9603 30.3549C42.2931 34.6173 39.8606 38.2977 36.4164 40.6034ZM18.6943 39.9471C21.7065 35.2221 25.5511 32.1476 30.3154 30.7279C31.734 34.4291 32.7775 38.2376 33.4414 42.1379C28.4779 44.0563 22.902 43.2317 18.6943 39.9471ZM12.8581 27.6096C18.7436 27.6009 23.8218 26.9249 28.0754 25.5862C28.432 26.3124 28.7732 27.042 29.1003 27.777C23.9323 29.3913 19.6722 32.7032 16.3493 37.6885C13.9573 34.8174 12.7673 31.336 12.8581 27.6096ZM21.1597 14.4857C23.1962 17.1512 24.9998 19.8987 26.5693 22.7173C22.8506 23.8121 18.4154 24.3743 13.2847 24.4093C14.3445 20.0726 17.2648 16.4665 21.1597 14.4857ZM37.2432 16.0071C35.4014 18.3838 32.8573 20.2629 29.6154 21.6356C28.0623 18.7896 26.2872 16.0137 24.2812 13.3187C28.8225 12.1615 33.5179 13.1306 37.2432 16.0071ZM28 9.64478C17.8631 9.64478 9.64465 17.8632 9.64465 28.0001C9.64465 38.137 17.8631 46.3554 28 46.3554C38.1368 46.3554 46.3553 38.137 46.3553 28.0001C46.3553 17.8632 38.1368 9.64478 28 9.64478Z" fill="white"/>
</g>
</g>
</g>
<defs>
<linearGradient id="paint0_linear_2766_121" x1="7.41891" y1="9.01469" x2="51.8645" y2="42.6541" gradientUnits="userSpaceOnUse">
<stop stop-color="#D31F61"/>
<stop offset="1" stop-color="#E9568C"/>
</linearGradient>
<clipPath id="clip0_2766_121">
<rect width="56" height="56" fill="white"/>
</clipPath>
</defs>
</svg>
