<svg width="56" height="56" viewBox="0 0 56 56" fill="none" xmlns="http://www.w3.org/2000/svg">
<g id="LinkedIn" clip-path="url(#clip0_2766_109)">
<g id="Group">
<path id="Vector" d="M28 56C43.464 56 56 43.464 56 28C56 12.536 43.464 0 28 0C12.536 0 0 12.536 0 28C0 43.464 12.536 56 28 56Z" fill="#007BB5"/>
<g id="Group_2">
<path id="Vector_2" d="M21.1944 20.8057H15.75V39.8612H21.1944V20.8057Z" fill="white"/>
<path id="Vector_3" d="M34.1236 20.8057C30.3247 20.8057 29.6714 22.1913 29.3611 23.5279V20.8057H23.9166V39.8612H29.3611V28.9723C29.3611 27.207 30.3179 26.2501 32.0833 26.2501C33.8065 26.2501 34.8055 27.1866 34.8055 28.9723V39.8612H40.25V30.3334C40.25 24.889 39.5408 20.8057 34.1236 20.8057Z" fill="white"/>
<path id="Vector_4" d="M18.4722 19.4444C19.9757 19.4444 21.1944 18.2257 21.1944 16.7222C21.1944 15.2188 19.9757 14 18.4722 14C16.9688 14 15.75 15.2188 15.75 16.7222C15.75 18.2257 16.9688 19.4444 18.4722 19.4444Z" fill="white"/>
</g>
</g>
</g>
<defs>
<clipPath id="clip0_2766_109">
<rect width="56" height="56" fill="white"/>
</clipPath>
</defs>
</svg>
