<svg width="56" height="56" viewBox="0 0 56 56" fill="none" xmlns="http://www.w3.org/2000/svg">
<g id="Twitter">
<path id="Vector" d="M28 2.15039C13.7234 2.15039 2.15039 13.7234 2.15039 28C2.15039 42.2766 13.7234 53.8496 28 53.8496C42.2766 53.8496 53.8496 42.2766 53.8496 28C53.8496 13.7234 42.2766 2.15039 28 2.15039ZM41.3767 21.2738C40.8834 21.7392 40.2679 22.5753 39.6368 22.8373C39.7583 23.4102 39.6362 24.0744 39.5214 24.6478C39.3904 25.3014 39.4957 26.0148 39.2952 26.6465C39.0824 27.3174 39.0197 28.0123 38.7951 28.6815C38.5358 29.4543 38.0772 30.2613 37.6303 30.9338C37.2439 31.5157 36.9779 32.1362 36.6061 32.713C36.1777 33.3766 35.5874 33.7938 35.0868 34.3526C34.3369 35.1893 33.2909 35.8831 32.3243 36.5344C31.5246 37.0725 30.5917 37.3066 29.7153 37.7054C29.372 37.8616 28.9559 37.991 28.5807 38.0878C28.2425 38.1746 27.6718 38.3874 27.3084 38.3874L26.6543 38.5C26.3894 38.5241 25.7258 38.4737 25.382 38.4966C25.0387 38.5185 24.7083 38.4227 24.3566 38.4238C23.4948 38.4255 22.6313 38.3975 21.7829 38.2861C20.305 38.0918 18.6015 37.4304 17.3846 36.5613C17.1651 36.4045 16.9982 36.1833 16.7804 36.0231C18.055 36.3222 19.6627 36.2746 20.8768 35.7319C21.5499 35.4306 22.3137 35.2974 22.918 34.8717C23.3822 34.5436 23.9254 34.1908 24.3981 33.9248C23.3072 33.8229 22.3003 33.5048 21.3097 32.9812C20.8214 32.7236 19.5306 31.2995 19.5362 30.2148C20.2938 30.2008 20.9765 30.3027 21.7448 30.2008C21.2027 30.0569 20.7519 29.8206 20.2558 29.4902C19.6969 29.1189 19.2287 28.8433 18.6502 28.2117C17.9704 27.4702 17.7509 26.0456 17.8276 25.0163C18.1782 25.051 18.471 25.2745 18.8115 25.3764C19.1637 25.4811 19.5809 25.4666 19.9164 25.6323C18.8009 25.2694 18.2269 23.4886 17.939 22.4958C17.6036 21.3405 18.3154 18.7236 18.3389 18.6558C19.2086 19.3166 19.8458 20.3129 20.7206 20.9154C21.2268 21.2638 21.8025 21.649 22.2925 21.9951C22.5411 22.1704 22.7293 22.2521 22.9818 22.4403C23.2019 22.6033 23.5379 22.7198 23.7826 22.8301C24.4126 23.1134 25.1983 23.4231 25.8905 23.5497C26.703 23.6986 27.5626 23.7311 28.3259 23.9943L29.2348 24.103C28.9828 23.1078 29.1206 21.7829 29.4252 20.7603C29.7774 19.5787 30.9814 18.5696 32.0611 18.06C33.068 17.5846 34.7278 17.3717 35.7773 17.7766C36.3143 17.9838 36.8698 18.2286 37.3688 18.5063C37.8342 18.7656 38.0621 19.3631 38.5756 19.297C39.4794 19.18 40.8649 18.6206 41.4126 17.827C41.3902 19.2254 40.5658 20.0486 39.5231 20.897C40.376 20.6478 41.3907 20.5761 42.2055 20.2166C41.9871 20.655 41.7351 20.9367 41.3767 21.2738Z" fill="#1DA1F2"/>
</g>
</svg>
